<svg xmlns="http://www.w3.org/2000/svg" viewBox="0 0 512 512" role="img" aria-label="LifeTracker">
  <rect width="512" height="512" rx="112" fill="#faf9f7"/>
  <rect x="86" y="112" width="340" height="288" rx="34" fill="#ffffff" stroke="#e8e3de" stroke-width="12"/>
  <g fill="#2e9e7a">
    <rect x="126" y="166" width="38" height="38" rx="8"/>
    <rect x="178" y="166" width="38" height="38" rx="8" opacity="0.45"/>
    <rect x="230" y="166" width="38" height="38" rx="8" opacity="0.25"/>
    <rect x="282" y="166" width="38" height="38" rx="8"/>
    <rect x="334" y="166" width="38" height="38" rx="8" opacity="0.65"/>
    <rect x="126" y="218" width="38" height="38" rx="8" opacity="0.25"/>
    <rect x="178" y="218" width="38" height="38" rx="8"/>
    <rect x="230" y="218" width="38" height="38" rx="8" opacity="0.65"/>
    <rect x="282" y="218" width="38" height="38" rx="8" opacity="0.45"/>
    <rect x="334" y="218" width="38" height="38" rx="8"/>
    <rect x="126" y="270" width="38" height="38" rx="8" opacity="0.45"/>
    <rect x="178" y="270" width="38" height="38" rx="8" opacity="0.25"/>
    <rect x="230" y="270" width="38" height="38" rx="8"/>
    <rect x="282" y="270" width="38" height="38" rx="8" opacity="0.65"/>
  </g>
  <rect x="334" y="270" width="38" height="38" rx="8" fill="#e07b39"/>
  <path d="M130 362h252" stroke="#e07b39" stroke-width="18" stroke-linecap="round"/>
</svg>
